<!DOCTYPE svg PUBLIC "-//W3C//DTD SVG 20010904//EN" "http://www.w3.org/TR/2001/REC-SVG-20010904/DTD/svg10.dtd">
<svg version="1.0" xmlns="http://www.w3.org/2000/svg" width="400px" height="101px" viewBox="0 0 4000 1010" preserveAspectRatio="xMidYMid meet">
<g id="layer101" fill="#5fb6ff" stroke="none">
 <path d="M235 834 c-28 -30 -30 -42 -14 -77 12 -27 47 -47 83 -47 30 0 76 46 76 75 0 37 -44 75 -85 75 -26 0 -43 -7 -60 -26z m99 -25 c13 -20 13 -24 -2 -45 -22 -30 -52 -30 -75 2 -18 24 -18 26 -1 45 23 25 59 24 78 -2z"/>
 <path d="M600 840 c-44 -44 -8 -130 54 -130 40 0 86 39 86 73 0 13 -9 36 -21 51 -26 33 -88 37 -119 6z m94 -26 c20 -19 20 -24 0 -52 -18 -26 -41 -28 -66 -5 -22 20 -23 37 -2 57 20 20 48 20 68 0z"/>
 <path d="M1025 836 c-26 -19 -10 -49 31 -56 26 -5 29 -9 32 -50 3 -43 3 -44 -16 -27 -28 25 -69 21 -97 -9 -24 -26 -25 -31 -25 -181 l0 -155 29 -29 c25 -24 38 -29 79 -29 71 0 112 35 112 94 0 54 -22 86 -59 86 -36 0 -45 -22 -25 -61 18 -36 4 -62 -30 -57 -20 3 -21 10 -24 142 -1 77 2 144 7 149 5 5 18 6 29 2 17 -5 22 -16 24 -52 3 -53 26 -76 56 -57 14 9 18 29 20 105 4 104 -8 158 -36 176 -35 21 -85 25 -107 9z"/>
 <path d="M1265 708 c-3 -8 -4 -81 -3 -163 3 -149 3 -150 27 -153 13 -2 28 1 34 7 7 7 16 7 29 0 10 -6 33 -9 51 -7 25 2 33 8 35 27 5 35 -21 52 -59 39 -17 -6 -33 -7 -37 -3 -4 3 -9 64 -12 133 l-5 127 -28 3 c-16 2 -29 -2 -32 -10z"/>
 <path d="M1555 709 c-41 -23 -45 -39 -45 -160 0 -115 1 -118 26 -138 37 -29 121 -29 158 0 25 20 26 23 26 139 0 146 -8 161 -91 167 -30 2 -63 -2 -74 -8z m84 -63 c8 -9 11 -44 9 -96 -2 -67 -6 -85 -21 -94 -30 -18 -47 17 -47 97 0 94 25 134 59 93z"/>
 <path d="M1873 709 c-48 -14 -63 -51 -63 -159 0 -131 19 -159 110 -160 69 0 103 20 98 58 -4 33 -41 42 -68 17 -10 -9 -27 -15 -37 -13 -16 3 -18 14 -18 98 l0 95 40 3 c71 4 85 10 85 36 0 13 -7 27 -16 30 -22 9 -93 6 -131 -5z"/>
 <path d="M2184 713 c-12 -2 -32 -15 -45 -29 -22 -24 -24 -34 -24 -136 0 -108 0 -110 28 -134 41 -35 127 -34 162 1 22 21 25 33 25 98 0 86 -1 87 -86 87 -30 0 -54 4 -54 9 0 31 14 41 56 41 33 0 46 5 54 19 21 40 -34 60 -116 44z m64 -215 c-2 -33 -8 -44 -22 -46 -24 -5 -36 14 -36 56 0 29 3 32 31 32 29 0 30 -1 27 -42z"/>
 <path d="M2503 705 c-45 -19 -53 -42 -53 -154 l0 -100 -27 -3 c-22 -2 -28 -8 -28 -28 0 -20 6 -26 28 -28 24 -3 27 -7 27 -41 0 -78 62 -80 68 -3 3 39 5 41 40 44 32 3 37 6 37 28 0 22 -5 25 -37 28 l-38 3 0 80 c0 94 8 114 50 122 23 5 30 12 30 31 0 37 -40 46 -97 21z"/>
 <path d="M2682 708 c-13 -13 -18 -271 -6 -302 7 -18 59 -22 69 -6 4 7 12 7 25 0 47 -25 98 -1 85 40 -6 19 -13 21 -53 18 l-47 -3 -3 119 c-1 67 -7 126 -14 133 -13 16 -40 17 -56 1z"/>
 <path d="M2949 694 c-20 -21 -24 -36 -24 -84 0 -77 27 -110 92 -110 36 0 43 -3 43 -20 0 -20 -16 -27 -75 -32 -25 -3 -30 -7 -30 -28 0 -24 2 -25 68 -25 63 0 71 2 93 28 23 27 24 35 24 157 l0 130 -25 6 c-14 3 -32 1 -39 -6 -11 -8 -20 -8 -35 -1 -33 18 -66 13 -92 -15z m109 -87 c3 -44 2 -47 -21 -47 -36 0 -52 61 -25 88 25 25 43 9 46 -41z"/>
 <path d="M3283 705 c-17 -7 -36 -22 -42 -34 -6 -11 -11 -69 -11 -130 0 -106 1 -110 26 -130 52 -41 184 -21 184 28 0 37 -46 55 -70 26 -17 -21 -47 -19 -60 4 -15 28 -13 156 3 169 7 6 34 12 61 14 95 6 83 68 -13 68 -25 -1 -60 -7 -78 -15z"/>
 <path d="M3541 706 c-8 -9 -11 -78 -9 -226 3 -190 5 -214 21 -224 12 -8 22 -8 35 0 14 9 18 32 22 140 l5 129 34 -67 c35 -67 55 -83 85 -66 23 13 20 46 -9 92 l-24 39 25 30 c21 26 24 38 22 90 -2 44 -8 63 -20 71 -31 19 -53 -4 -56 -60 -4 -54 -15 -74 -43 -74 -16 0 -19 8 -19 58 0 32 -5 63 -12 70 -16 16 -43 15 -57 -2z"/>
 <path d="M216 620 c-25 -31 -29 -42 -46 -160 -21 -145 -40 -258 -46 -274 -5 -12 -20 -16 -65 -16 -46 0 -59 -3 -59 -15 0 -12 15 -15 75 -15 l74 0 10 37 c6 21 11 50 11 66 l0 27 100 0 c82 0 100 3 100 15 0 12 -17 15 -96 15 l-97 0 7 38 c4 20 13 82 21 136 14 91 24 119 50 138 6 4 112 8 238 8 261 0 253 3 273 -93 32 -146 43 -194 49 -209 7 -17 -2 -18 -109 -18 -96 0 -116 -3 -116 -15 0 -13 21 -15 131 -15 l132 0 -6 38 c-4 20 -13 69 -22 107 -8 39 -20 96 -27 128 -9 43 -19 65 -41 83 -29 24 -29 24 -272 24 l-243 0 -26 -30z"/>
 <path d="M418 457 c-55 -41 -72 -67 -44 -67 7 0 31 14 52 31 l39 31 5 -148 c4 -105 9 -149 18 -152 9 -3 12 31 12 147 0 83 2 151 5 151 9 0 70 -44 73 -52 5 -11 42 -10 42 1 0 13 -115 101 -132 101 -7 -1 -39 -20 -70 -43z"/>
 </g>

</svg>