<?xml version="1.0" standalone="no"?>
<!DOCTYPE svg PUBLIC "-//W3C//DTD SVG 20010904//EN"
 "http://www.w3.org/TR/2001/REC-SVG-20010904/DTD/svg10.dtd">
<svg version="1.0" xmlns="http://www.w3.org/2000/svg"
 width="2132.000000pt" height="2132.000000pt" viewBox="0 0 2132.000000 2132.000000"
 preserveAspectRatio="xMidYMid meet">
<metadata>
Created by potrace 1.11, written by Peter Selinger 2001-2013
</metadata>
<g transform="translate(0.000000,2132.000000) scale(0.100000,-0.100000)"
fill="#000000" stroke="none">
<path d="M380 12808 c-36 -4 -86 -9 -112 -12 -60 -7 -160 -41 -203 -69 -47
-30 -60 -58 -49 -99 14 -50 59 -61 214 -55 69 3 136 8 150 11 49 12 236 9 290
-4 108 -26 173 -79 223 -183 57 -118 86 -267 102 -522 9 -151 16 -461 20 -940
5 -569 13 -805 28 -890 2 -10 16 -28 31 -39 36 -27 56 -14 79 53 17 52 22 82
32 201 33 389 41 1822 10 1964 -2 12 -7 37 -9 56 -11 73 -44 171 -77 225 -33
55 -129 158 -179 192 -14 9 -27 20 -30 23 -25 30 -148 76 -230 86 -71 9 -219
10 -290 2z"/>
<path d="M2487 12734 c-1 -1 -148 -4 -327 -8 -392 -7 -490 -14 -557 -38 -36
-13 -56 -46 -42 -70 32 -58 248 -67 1901 -83 1263 -12 1521 -22 1665 -64 82
-24 198 -153 197 -221 0 -42 -32 -128 -132 -355 -74 -169 -92 -209 -172 -380
-23 -49 -51 -110 -62 -135 -11 -25 -24 -52 -29 -60 -5 -8 -12 -22 -16 -30 -3
-8 -49 -103 -101 -210 -52 -107 -96 -197 -97 -200 -4 -18 -61 -126 -67 -128
-5 -2 -8 -9 -8 -15 0 -7 -8 -28 -18 -47 -11 -19 -47 -89 -81 -154 -128 -244
-157 -280 -228 -291 -16 -2 -39 -6 -53 -9 -33 -6 -190 -17 -320 -22 -58 -3
-429 -7 -825 -9 -396 -3 -750 -5 -787 -6 -37 0 -72 2 -78 6 -5 3 -10 3 -10 -2
0 -4 -75 -8 -168 -9 -336 -2 -520 -22 -523 -58 -6 -56 22 -115 54 -117 12 -1
33 -3 47 -5 14 -2 131 -6 260 -9 374 -9 872 -8 2465 8 l180 2 35 70 c19 39 38
72 41 75 5 4 20 37 24 50 0 3 104 212 230 465 126 253 230 462 230 465 1 3 37
77 79 165 43 88 95 198 116 245 21 47 50 112 66 145 15 33 29 65 30 70 1 6 16
45 33 87 77 193 102 291 115 443 4 52 -23 145 -56 193 -70 102 -208 200 -292
207 -11 1 -37 5 -56 9 -107 21 -459 27 -1613 29 -577 1 -1049 1 -1050 1z"/>
<path d="M19345 12221 c-72 -20 -113 -109 -131 -286 -3 -38 -8 -83 -10 -100
-9 -73 -14 -389 -14 -870 1 -634 4 -745 26 -905 14 -104 51 -161 134 -207 37
-21 55 -22 101 -3 42 18 78 99 103 235 6 29 9 68 21 223 5 59 8 88 20 152 12
60 55 105 107 108 57 4 132 -47 171 -116 32 -56 57 -170 62 -275 6 -140 12
-173 40 -234 39 -85 96 -109 186 -78 77 27 115 87 143 225 12 62 14 248 2 300
-3 13 -8 42 -12 65 -10 69 -51 175 -91 232 -120 173 -119 166 -28 346 118 231
145 335 106 407 -46 87 -197 90 -274 5 -31 -34 -102 -146 -152 -240 -62 -118
-123 -211 -169 -260 -35 -37 -39 -38 -51 -22 -7 10 -16 38 -20 63 -3 25 -8 56
-11 67 -12 61 -30 271 -39 448 -20 397 -23 456 -30 514 -9 78 -15 106 -25 125
-5 10 -7 20 -4 22 9 9 -57 58 -79 59 -12 0 -31 2 -42 3 -11 1 -29 0 -40 -3z"/>
<path d="M13753 12000 c-30 -7 -54 -20 -95 -53 -15 -12 -44 -71 -36 -73 2 0
-2 -7 -9 -15 -6 -8 -14 -45 -17 -84 -14 -157 -31 -189 -130 -236 -70 -34 -93
-52 -120 -93 -47 -73 -1 -163 114 -221 74 -38 102 -70 115 -131 8 -36 14 -206
19 -514 2 -129 7 -248 11 -265 4 -16 8 -41 9 -55 8 -92 144 -273 252 -336 52
-31 90 -37 229 -38 124 0 164 5 218 27 32 14 37 21 38 49 0 18 2 44 5 56 9 51
-41 98 -191 178 -124 66 -145 89 -162 180 -8 43 -10 661 -2 709 12 68 55 117
115 128 10 2 26 7 34 10 8 3 28 8 45 12 37 8 151 63 164 79 18 22 20 68 5 99
-34 65 -116 112 -209 120 -77 7 -107 19 -129 52 -18 28 -50 141 -60 215 -15
115 -36 159 -84 183 -46 22 -87 28 -129 17z"/>
<path d="M6319 11996 c-2 -2 -20 -6 -39 -9 -196 -29 -369 -168 -394 -317 -16
-93 -20 -240 -20 -780 1 -776 2 -792 106 -905 56 -61 148 -135 148 -119 0 3 7
1 15 -6 17 -14 111 -18 167 -7 20 4 78 22 128 41 121 45 124 43 117 -103 -7
-123 -13 -165 -33 -206 -18 -39 -38 -51 -118 -69 -184 -43 -248 -177 -130
-274 89 -74 263 -67 422 16 77 41 176 136 211 203 21 40 50 144 57 204 1 17 5
53 9 80 28 247 17 686 -20 830 -43 162 -167 212 -272 108 -70 -70 -110 -186
-118 -343 -2 -36 -8 -77 -14 -91 -9 -26 -55 -78 -69 -80 -4 0 -20 -3 -35 -5
-37 -6 -95 13 -123 41 -37 38 -67 189 -68 357 -1 43 -3 78 -6 78 -15 0 6 571
25 701 3 20 8 54 10 75 9 69 45 198 63 223 22 30 84 55 118 47 35 -9 131 -105
139 -139 7 -28 -12 -117 -24 -117 -15 0 -54 -133 -52 -181 2 -94 65 -173 142
-178 42 -2 129 25 129 40 0 5 5 9 10 9 15 0 70 65 95 113 19 37 36 83 65 179
9 31 6 219 -4 263 -9 38 -51 112 -85 149 -63 68 -186 132 -313 162 -28 7 -233
15 -239 10z"/>
<path d="M3970 11929 c-36 -17 -66 -35 -68 -40 -2 -5 -8 -9 -13 -9 -18 0 -248
-189 -373 -305 -28 -25 -127 -115 -211 -190 -12 -11 -35 -31 -51 -45 -81 -70
-171 -147 -189 -163 -72 -65 -106 -68 -183 -16 -23 16 -47 29 -52 29 -4 0 -10
3 -12 8 -1 4 -30 27 -63 51 -33 25 -61 48 -63 53 -2 4 -10 8 -18 8 -8 0 -14 4
-14 8 0 14 -121 88 -190 117 -80 34 -135 31 -163 -7 -32 -43 -17 -70 126 -212
223 -222 473 -426 522 -426 9 0 37 14 63 32 47 31 268 216 328 273 18 17 76
71 130 120 192 176 524 514 588 598 48 63 41 147 -12 147 -9 0 -46 -14 -82
-31z"/>
<path d="M9237 11544 c-1 -1 -28 -4 -60 -8 -205 -21 -391 -164 -414 -316 -17
-116 -20 -216 -17 -565 2 -398 4 -436 22 -507 20 -76 92 -156 218 -240 108
-73 304 -93 454 -48 19 6 43 13 53 15 22 5 130 55 137 64 3 3 17 12 32 20 66
34 150 149 163 221 32 186 37 549 10 922 -9 129 -45 208 -129 284 -85 77 -212
134 -336 150 -40 6 -129 11 -133 8z m77 -303 c64 -40 102 -105 121 -207 2 -10
4 -20 5 -21 4 -5 6 -16 15 -68 4 -27 9 -59 12 -70 4 -21 15 -238 14 -290 0
-51 -11 -179 -17 -197 -3 -10 -7 -29 -10 -42 -19 -105 -105 -204 -166 -192
-99 19 -140 79 -164 236 -3 25 -7 140 -9 255 -4 299 30 529 83 572 15 12 71
42 81 43 2 0 18 -9 35 -19z"/>
<path d="M10927 11545 c-1 -2 -40 -6 -87 -9 -47 -4 -92 -9 -100 -10 -46 -8
-87 -20 -97 -28 -7 -6 -13 -8 -13 -5 0 3 -12 0 -27 -8 -15 -8 -30 -12 -34 -10
-4 3 -12 -2 -19 -10 -7 -8 -17 -15 -23 -15 -10 0 -111 -82 -135 -110 -35 -40
-63 -121 -69 -201 -8 -106 -9 -794 0 -872 13 -124 56 -195 172 -282 118 -90
152 -97 425 -90 348 8 396 21 404 106 9 90 -40 124 -204 144 -25 3 -58 7 -75
10 -254 32 -301 69 -322 250 -8 70 -8 515 0 626 8 98 40 185 75 203 46 23 93
12 196 -42 102 -54 155 -71 221 -68 60 3 100 25 123 67 17 32 11 114 -13 162
-34 71 -128 149 -197 161 -13 3 -23 5 -23 6 0 5 -173 28 -178 25z"/>
<path d="M18137 11544 c-1 -1 -25 -4 -53 -8 -69 -8 -180 -43 -229 -72 -53 -31
-116 -90 -148 -139 -55 -83 -60 -139 -61 -605 -1 -533 5 -570 103 -682 23 -26
64 -63 90 -83 83 -61 116 -66 376 -61 271 6 345 12 403 32 49 18 67 45 63 94
-4 48 -24 77 -68 95 -40 17 -45 18 -203 40 -57 8 -117 17 -140 21 -14 3 -36 7
-50 9 -14 2 -51 11 -83 20 -32 8 -59 15 -61 15 -6 0 -25 55 -35 100 -29 132
-32 607 -6 740 18 92 30 124 60 155 52 55 96 49 233 -33 29 -18 59 -32 67 -32
8 0 16 -4 19 -9 10 -16 102 -27 156 -17 98 17 151 107 120 202 -34 101 -201
193 -384 210 -57 6 -166 11 -169 8z"/>
<path d="M12775 11533 c-55 -10 -66 -16 -94 -45 -29 -31 -64 -123 -76 -197
-15 -88 -22 -260 -30 -671 -3 -140 -7 -276 -10 -302 -12 -108 -47 -156 -120
-162 -71 -7 -113 30 -140 122 -36 121 -45 221 -60 657 -13 368 -31 495 -79
543 -32 32 -92 51 -151 47 -117 -9 -129 -79 -128 -765 1 -649 6 -674 133 -801
133 -132 230 -146 433 -63 69 28 105 31 114 7 13 -33 -3 -338 -17 -338 -1 0
-3 -8 -5 -18 -5 -26 -49 -64 -82 -71 -15 -3 -53 -8 -83 -11 -175 -21 -274 -94
-256 -189 8 -39 41 -86 62 -86 8 0 14 -4 14 -10 0 -5 8 -10 18 -10 10 0 22 -3
26 -7 12 -13 59 -17 166 -17 157 1 205 11 329 72 46 23 154 112 136 112 -3 0
2 12 13 28 22 31 56 121 66 172 3 19 8 44 10 56 4 20 8 49 21 169 12 109 17
329 17 725 1 686 -15 874 -84 988 -29 47 -90 75 -143 65z"/>
<path d="M16557 11534 c-1 -1 -38 -4 -82 -7 -157 -11 -233 -37 -258 -89 -19
-39 -11 -71 27 -112 51 -55 129 -87 246 -101 61 -7 192 -48 222 -69 29 -21 67
-76 62 -91 -5 -12 -126 -57 -184 -69 -65 -13 -231 -66 -280 -90 -111 -53 -183
-135 -227 -259 -23 -62 -26 -89 -27 -197 -1 -159 7 -220 44 -317 42 -112 134
-208 257 -270 86 -43 151 -39 264 16 103 50 149 49 261 -3 48 -23 90 -36 110
-34 73 4 131 67 143 155 3 21 8 49 11 61 15 72 22 715 10 954 -4 84 -13 150
-27 194 -19 62 -29 76 -118 164 -110 110 -165 142 -269 156 -35 5 -181 11
-185 8z m102 -858 c34 -8 69 -43 94 -96 19 -39 22 -61 21 -160 -1 -129 -12
-166 -65 -218 -45 -44 -102 -54 -153 -27 -102 53 -140 221 -85 375 18 52 37
77 80 109 38 27 51 29 108 17z"/>
<path d="M7786 11513 c-1 -1 -67 -3 -148 -4 l-146 -2 -4 -26 c-1 -14 -3 -101
-3 -193 0 -93 -2 -168 -5 -168 -8 0 -4 -997 4 -1065 13 -113 21 -136 66 -184
41 -44 89 -46 154 -5 43 27 70 69 81 125 19 98 25 149 40 374 13 192 16 252
14 295 -1 25 -1 50 0 55 6 77 11 167 16 295 4 85 7 160 7 167 1 8 42 12 142
12 155 1 177 4 239 29 16 7 32 12 36 12 14 0 82 78 83 96 6 93 -51 154 -164
174 -59 10 -403 21 -412 13z"/>
<path d="M15197 11514 c-1 -1 -54 -5 -117 -8 -112 -7 -175 -13 -175 -16 0 -1
-10 -3 -23 -6 -57 -10 -76 -36 -88 -113 -3 -20 -7 -47 -10 -61 -17 -92 -25
-953 -11 -1160 13 -206 35 -250 145 -293 118 -47 177 11 198 193 3 25 7 61 9
80 3 19 7 139 9 265 6 250 15 522 20 570 14 125 19 152 30 180 11 25 24 36 57
47 44 14 57 14 134 3 114 -16 225 -8 225 16 0 5 6 9 14 9 34 0 57 105 42 186
-14 78 -61 98 -241 103 -150 5 -217 6 -218 5z"/>
<path d="M1113 9695 c-170 -43 -285 -122 -369 -253 -19 -29 -34 -54 -34 -56 0
-2 -8 -21 -17 -42 -9 -22 -17 -41 -18 -44 -1 -3 -4 -18 -8 -35 -15 -64 -18
-83 -18 -155 -2 -169 65 -317 202 -444 175 -162 417 -211 664 -136 160 49 308
154 403 285 89 121 124 142 256 153 100 8 638 7 686 -1 125 -21 155 -39 247
-154 113 -140 260 -242 417 -290 226 -69 506 -4 661 153 71 73 145 207 161
293 3 14 8 29 11 34 3 5 6 50 8 102 5 169 -43 300 -150 409 -77 78 -92 89
-162 125 -63 31 -145 58 -208 68 -52 9 -220 9 -265 0 -175 -32 -366 -138 -441
-246 -13 -19 -29 -39 -35 -45 -5 -6 -28 -44 -50 -85 -45 -85 -83 -115 -164
-130 -62 -11 -735 -9 -790 3 -65 14 -93 39 -145 128 -57 98 -85 137 -135 185
-77 74 -229 157 -327 178 -13 3 -33 7 -45 11 -13 3 -73 7 -134 8 -90 3 -128
-1 -201 -19z m2692 -211 c22 -8 45 -16 50 -18 47 -11 125 -73 177 -138 101
-128 90 -356 -23 -470 -20 -21 -41 -38 -47 -38 -6 0 -12 -3 -14 -7 -6 -15 -84
-51 -138 -65 -197 -51 -409 51 -503 242 -64 129 -31 262 94 388 70 70 139 108
219 119 19 3 36 6 37 7 8 7 114 -8 148 -20z m-2345 -6 c103 -38 197 -124 247
-225 37 -76 39 -175 4 -243 -41 -81 -50 -94 -102 -148 -58 -59 -161 -114 -255
-135 -53 -13 -66 -12 -129 5 -230 63 -362 263 -309 467 24 91 65 149 149 210
56 41 111 67 170 80 53 11 181 5 225 -11z"/>
</g>
</svg>
