<?xml version="1.0" encoding="UTF-8"?>
<!-- Created with Inkscape (http://www.inkscape.org/) -->
<svg width="533.33331" height="145.33333" version="1.1" viewBox="0 0 533.33331 145.33333" xmlns="http://www.w3.org/2000/svg" xmlns:cc="http://creativecommons.org/ns#" xmlns:dc="http://purl.org/dc/elements/1.1/" xmlns:rdf="http://www.w3.org/1999/02/22-rdf-syntax-ns#">
 <metadata>
  <rdf:RDF>
   <cc:Work rdf:about="">
    <dc:format>image/svg+xml</dc:format>
    <dc:type rdf:resource="http://purl.org/dc/dcmitype/StillImage"/>
    <dc:title/>
   </cc:Work>
  </rdf:RDF>
 </metadata>
 <path d="m23.830404 124.42171c-7.283295-4.52017-9.682173-12.97321-5.807835-20.46536 5.732211-11.084872 24.620341-10.271677 30.613605 1.31802 2.09897 4.05896 2.09897 4.05896 14.03049 4.05896 11.931519 0 11.931519 0 14.03049-4.05896 5.81125-11.237721 23.633336-12.441601 30.438176-2.0561 4.46859 6.81993 1.56028 17.64121-5.75836 21.42582-8.282075 4.28283-17.624574 1.81927-24.042569-6.33989-2.731168-3.47212-3.398451-3.63754-14.673718-3.63754-11.616229 0-11.859981 0.0668-14.67501 4.02012-5.47359 7.68695-16.71109 10.35495-24.155269 5.73493zm12.679729-4.3622c4.454777-1.6937 7.950672-7.17382 6.829602-10.706-2.414318-7.60685-10.876634-10.199176-17.159924-5.25674-5.966136 4.69296-4.247887 13.5692 3.153521 16.29065 2.962708 1.08937 3.515519 1.06411 7.176801-0.32791zm63.823197-2.37004c1.31849-1.18821 2.33333-4.00049 2.33333-6.46602 0-8.27133-10.894836-12.935654-16.977749-7.26856-4.128759 3.84653-4.918485 7.65408-2.388423 11.51544 3.937435 6.00929 11.704249 7.02119 17.032842 2.21914zm203.66666-9.02281c-2.33678-2.81564 0.3504-5.73133 5.76596-6.25626 3.97453-0.38525 4.25969-0.76846 4.6526-6.252428 0.37272-5.20201 0.15361-5.730993-2-4.828538-5.90155 2.473016-8.30284 2.240832-11.67228-1.128612-3.31372-3.313716-3.41295-3.91988-3.41295-20.84873 0-14.912344 0.31568-17.556925 2.18123-18.272803 1.19968-0.460358 3.14968-0.227537 4.33333 0.517383 1.72797 1.087477 2.22617 4.257321 2.52791 16.084185 0.38845 15.225474 1.73706 18.917761 6.27389 17.176821 1.62483-0.623508 2.01697-3.521053 2.01697-14.903489 0-15.008766 1.18315-19.287523 5.33334-19.287523 4.4489 0 5.33333 4.374591 5.33333 26.380046 0 23.584508-1.09845 28.740518-6.74501 31.660468-4.89882 2.53327-12.46971 2.51225-14.58832-0.0405zm-148-1.33333c-2.0841-2.5112 0.13356-5.6415 4.43016-6.25329 2.32168-0.33058 2.98819-1.450428 3.32759-5.590976 0.37411-4.563923 0.13705-5.057211-2-4.161871-5.90835 2.475352-8.30785 2.243917-11.67813-1.126371-3.36566-3.365657-3.41295-3.696915-3.41295-23.907798 0-19.913548 0.0908-20.580182 3.20228-23.503237 6.62353-6.222487 20.23996-4.399101 23.68972 3.172309 1.88549 4.138206 0.40403 11.721701-2.86841 14.683227-4.86759 4.405102-9.86675-0.710002-6.62106-6.77462 1.51456-2.82999 1.4436-3.595999-0.51452-5.554119-1.75308-1.753084-2.7981-1.939721-4.57969-0.817917-3.27248 2.060567-4.17092 33.848943-1.03035 36.455387 2.86648 2.378972 6.05536 0.715513 6.05536-3.158744 0-8.694741 6.04392-13.608301 9.28643-7.549633 1.83389 3.426665 1.76692 22.580475-0.0976 27.929203-2.39277 6.86376-13.34641 10.78827-17.18883 6.15845zm32.12574-15.848507c-1.04016-1.253309-1.41472-8.008224-1.16327-20.978699l0.37087-19.130189 9.63425-0.196976c7.02497-0.14363 10.07348 0.33226 11.25601 1.757128 2.71483 3.271173-0.40347 6.397245-6.38135 6.397245h-5.17558l-0.66667 15.719326c-0.5084 11.987681-1.14145 16.018501-2.66667 16.979583-2.69037 1.695278-3.40902 1.619733-5.20759-0.547418zm38.54093 0.906871c-1.1-0.402112-3.35-1.959332-5-3.460489-2.75976-2.51081-3-3.890124-3-17.224232 0-13.61182 0.19937-14.694229 3.27273-17.767581 4.61665-4.616662 14.98192-4.645433 20.31959-0.0564 3.52665 3.032032 3.7662 3.929721 4.18068 15.666666 0.24181 6.847688-0.20438 14.129363-0.99152 16.1815-2.13147 5.556823-12.11527 9.09741-18.78148 6.660536zm9.48157-10.725029c2.05383-5.319904 0.88539-19.87114-1.81224-22.56876-1.81853-1.818536-2.56224-1.903334-4.26908-0.486777-2.59587 2.154379-2.97611 22.613013-0.46692 25.122203 2.60881 2.608816 5.03935 1.841724 6.54824-2.066666zm135.51842 10.226534c-2.0442-1.19064-2.33333-3.64362-2.33333-19.796194 0-13.176913 0.4755-18.803017 1.66666-19.719506 0.91667-0.705294 5.86667-1.22876 11-1.163259 8.7832 0.112067 9.35986 0.306683 9.78332 3.301639 0.5648 3.994528-1.99493 5.71549-6.94988 4.672564-2.51777-0.529944-4.22662-0.185962-4.97958 1.002366-0.6305 0.995054-1.15555 8.139189-1.16678 15.875856-0.0235 16.187368-1.33289 19.139214-7.02041 15.826534zm34.27652-1.603862c-2.55544-2.198092-3.72893-4.730355-4.22285-9.112383-0.98955-8.779205 2.03734-13.975774 9.28742-15.944701 9.94108-2.699726 9.44715-2.410897 7.70759-4.506928-0.87173-1.050382-3.72855-2.093282-6.34847-2.317556-5.54176-0.474394-8.97122-4.340102-5.70021-6.425309 1.1-0.701228 4.89616-1.284148 8.43589-1.295377 5.35049-0.01697 7.0932 0.636882 10.33333 3.877018 3.873 3.872995 3.89744 3.997392 3.89744 19.83674 0 12.699085-0.41581 16.284396-2.04545 17.636878-1.64373 1.364179-2.65844 1.369511-5.16667 0.02715-2.32634-1.245021-3.82045-1.296204-5.86689-0.200981-4.05428 2.169784-6.36902 1.816312-10.31113-1.574551zm12.6512-6.868907c0.87316-1.052096 1.39662-3.902096 1.16325-6.333333-0.56235-5.858479-5.72754-7.093325-7.72249-1.846219-2.54605 6.696628 2.53321 13.030613 6.55924 8.179552zm63.50085 7.817663c-1.75955-1.759542-2.09524-6.204827-2.09524-27.74516 0-27.11689 0.78328-30.970987 6.08813-29.956427 2.33099 0.445805 2.64254 2.017489 3.2452 16.370914 0.3691 8.790573 1.26182 16.072644 2 16.314361 0.73334 0.240129 3.13334-3.011538 5.33333-7.225925 3.23688-6.200673 4.63246-7.662524 7.31507-7.662524 4.57377 0 5.03951 3.915628 1.28356 10.791216-3.03852 5.562274-3.03852 5.562274-0.15191 9.232008 4.09318 5.20363 4.17991 18.524133 0.13472 20.689055-4.12626 2.20831-6.58144-0.569745-6.58144-7.446968 0-6.187137-2.8037-10.353853-6.49517-9.652755-1.62684 0.308977-2.27512 2.238488-2.58466 7.692846-0.56528 9.960853-3.15614 12.934809-7.49159 8.599359zm-220.28714-2.398287c-3.7461-3.222268-3.80809-3.507221-3.80809-17.506474 0-13.939695 0.0765-14.296735 3.74101-17.448779 4.83036-4.154893 16.58417-4.611842 20.05233-0.779566 5.07772 5.61081 0.67163 10.358446-6.03896 6.507094-6.58208-3.777596-7.75438-2.096697-7.75438 11.118547 0 13.184677 0.20262 13.500955 9.33333 14.568115 4.87736 0.570046 6 1.200207 6 3.367922 0 2.35985-1.01923 2.711657-8.85857 3.057696-7.79732 0.344184-9.31479-0.0013-12.66667-2.884555zm81.64376-0.942108c-3.15056-3.744232-3.45185-5.143287-3.45185-16.028585 0-11.427476-0.13942-11.989806-3.33334-13.445053-1.83333-0.835323-3.33333-2.637309-3.33333-4.004416 0-1.424513 1.42301-3.026677 3.33333-3.752978 2.49878-0.950032 3.33334-2.236192 3.33334-5.137072 0-2.128359 0.87117-4.592755 1.93594-5.476436 2.72588-2.262284 6.62523-1.184762 7.10065 1.962153 1.1483 7.600719 1.73432 8.651355 4.82555 8.651355 3.51477 0 6.82204 3.147598 5.52033 5.253813-0.4659 0.753844-2.76756 1.868268-5.11478 2.476497-4.2677 1.105869-4.2677 1.105869-4.2677 12.354446 0 11.248576 0 11.248576 4.66667 13.577264 2.56667 1.280779 4.60667 2.930779 4.53333 3.666667-0.0733 0.735888-0.22333 1.937978-0.33333 2.671312-0.11 0.733333-2.84667 1.333333-6.08148 1.333333-4.93072 0-6.43947-0.663143-9.33333-4.1023zm101.21266 0.888029c-3.13332-3.133313-3.33119-4.169977-3.33119-17.452395 0-13.215115 0.21-14.331209 3.27274-17.39394 6.36516-6.365158 24.17022-3.397696 23.13646 3.856016-0.52792 3.704257-5.1762 4.407292-9.67036 1.462605-5.7009-3.735377-7.4055-0.936412-7.4055 12.159889 0 6.635414 0.58986 11.455941 1.46824 11.998807 0.80753 0.499082 4.55753 1.284492 8.33333 1.745356 5.69689 0.695346 6.86509 1.291706 6.86509 3.5046 0 2.385492-1.01948 2.707977-9.66881 3.058456-8.80415 0.356752-9.96672 0.09388-13-2.939394zm-418.414501-0.313506c-0.504167-0.504167-0.916667-12.535939-0.916667-26.737269 0-34.925018-1.831334-38.983815-16.7959714-37.225017-4.7013762 0.552555-7.359961 0.316447-7.99432253-0.70997-1.69209717-2.737872 3.72541693-5.133299 11.60950093-5.133299 6.190468 0 8.389564 0.628311 11.572216 3.306336 6.554853 5.515545 7.029584 8.276252 6.63661 38.593975-0.340746 26.288508-1.032556 30.984054-4.111366 27.905244zm13.326219-0.0071c-0.500254-0.500301-0.909553-1.7096-0.909553-2.687379 0-1.43556 6.624193-1.777777 34.411825-1.777777 25.480322 0 34.97646-0.432579 36.5873-1.666667 2.26991-1.739021 23.66754-46.518136 23.66754-49.529394 0-0.948184-1.2621-2.866963-2.80466-4.263954-2.62054-2.373246-5.73332-2.56627-47.418172-2.940425-41.143088-0.369292-44.579505-0.576728-44.17629-2.666667 0.401296-2.079989 4.180581-2.266225 45.98858-2.266225 43.969722 0 45.679522 0.09572 49.242502 2.756971 7.86532 5.87472 6.75676 11.066864-9.23272 43.243028l-10.93257 22-36.757117 0.353998c-20.216411 0.194732-37.16641-0.055273-37.666665-0.555523zm25.356602-25.905105c-4.179719-3.725323-7.599489-7.344153-7.599489-8.041845 0-3.368214 4.509002-2.422315 10.033881 2.104908 3.30221 2.705913 6.575163 4.722684 7.27323 4.481714s6.345549-5.088128 12.549961-10.771461c11.107975-10.175069 16.095377-12.773022 15.235657-7.936301-0.4667 2.625636-26.156846 26.936301-28.464769 26.936301-0.78594 0-4.848751-3.047992-9.028471-6.773316z" fill="#2db8fe" stroke-width="1.33333325"/>
</svg>
